<svg width="196" height="196" viewBox="0 0 196 196" xmlns="http://www.w3.org/2000/svg"><defs><filter x="0%" y="0%" width="100%" height="100%" filterUnits="objectBoundingBox" id="a"><feGaussianBlur in="SourceGraphic"/></filter><linearGradient x1="-1.68%" y1="50%" x2="100.65%" y2="50%" id="b"><stop stop-color="#D7BA92" offset="0%"/><stop stop-color="#D7BA92" offset="50%"/><stop stop-color="#C0A073" offset="100%"/></linearGradient></defs><g fill="none" fill-rule="evenodd"><ellipse fill="#F6F8FA" filter="url(#a)" cx="98" cy="165" rx="98" ry="28"/><g fill="#67522A"><path d="M28.13 21.15H168V165H28.13z"/><path d="M28.13 21.29h139.73L140.99 0H55L28.13 21.29z"/></g><path fill="#C0A073" d="M33.13 24.87h130.13V160H33.13z"/><path d="M33.13 25h130l-25-20h-80l-25 20z" fill="#C0A073"/><path d="M58 5L33 25h130L138 5h-9.22L148 20H48L67.22 5H58z" fill="#D7BA92"/><path d="M33 24.88V160h130.13V24.87H33zm5 .12h120v130H38V25z" fill="#D7BA92"/><g><path stroke="#67522A" stroke-width="2" fill="#C0A073" d="M48.42 35.42h99.43v52.92H48.42z"/><path stroke="#4A402D" stroke-width="3.33" fill="#4A402D" d="M48.42 95.42h99.43v52.92H48.42z"/><path fill="#67522A" d="M78 63h40v2H78z"/></g><g><path d="M145.04 101.87c-1.48-2.56-28 64.63-25.1 63.6 2.9-1.04-79.08-29.62-77.6-27.06 1.49 2.56 28-64.62 25.1-63.59-2.9 1.03 79.09 29.62 77.6 27.05z" fill="#EFEFEF"/><path fill="#C1C1C1" d="M69.47 93.29l2.58-6.56 2.54 1-2.57 6.56zM58.92 136.13l18.63-47.42 2.54 1-18.63 47.42zM64.3 138.01l18.62-47.42 2.54 1L66.83 139zM70.1 140.04l18.62-47.42 2.54 1-18.63 47.42zM75.47 141.9L94.1 94.5l2.54 1-18.63 47.42zM85.74 133.8l11.14-28.37 2.54 1-11.14 28.37zM87.73 145.51l18.63-47.42 2.54 1-18.63 47.42zM93.62 147.33l18.63-47.42 2.54 1-18.63 47.42zM103.26 140.2l11.48-29.22 2.54 1-11.48 29.22zM105.42 150.26l18.63-47.42 2.54 1-18.63 47.42zM125.66 117.4l4.82-12.29 2.55 1-4.83 12.28z"/></g><g><path stroke="#67522A" stroke-width="3" fill="url(#b)" transform="rotate(90 17.03 109.88)" d="M25.38-24.95h57.29V82.7H25.38z"/><path fill="#67522A" d="M73 147h50v3H73z"/></g></g></svg>